<svg xmlns="http://www.w3.org/2000/svg" xmlns:xlink="http://www.w3.org/1999/xlink" width="500" zoomAndPan="magnify" viewBox="0 0 375 374.999991" height="500" preserveAspectRatio="xMidYMid meet" version="1.0"><defs><g/><clipPath id="a0ba886f97"><path d="M 215 91.789062 L 248.421875 91.789062 L 248.421875 124 L 215 124 Z M 215 91.789062 " clip-rule="nonzero"/></clipPath><clipPath id="f00151b40e"><path d="M 159 134 L 241 134 L 241 234.289062 L 159 234.289062 Z M 159 134 " clip-rule="nonzero"/></clipPath><clipPath id="f31982c3ba"><path d="M 126.921875 123 L 231 123 L 231 210 L 126.921875 210 Z M 126.921875 123 " clip-rule="nonzero"/></clipPath><clipPath id="525fc5c3b9"><path d="M 0.558594 3 L 7 3 L 7 11 L 0.558594 11 Z M 0.558594 3 " clip-rule="nonzero"/></clipPath><clipPath id="349eddb430"><rect x="0" width="142" y="0" height="13"/></clipPath></defs><g clip-path="url(#a0ba886f97)"><path fill="#f68712" d="M 232.851562 116.890625 C 233.140625 115.601562 233.746094 112.804688 233.984375 110.351562 C 234.011719 110.035156 234.328125 109.824219 234.644531 109.929688 L 248.039062 114.148438 L 247.988281 112.882812 C 247.988281 112.648438 247.855469 112.4375 247.671875 112.304688 L 243.503906 109.269531 L 243.742188 107.742188 C 243.769531 107.609375 243.664062 107.503906 243.53125 107.476562 L 242.105469 107.347656 C 241.972656 107.320312 241.84375 107.453125 241.867188 107.582031 L 241.894531 108.085938 L 239.839844 106.582031 L 240.050781 105.132812 C 240.074219 105 239.96875 104.894531 239.863281 104.867188 L 238.308594 104.65625 C 238.175781 104.628906 238.046875 104.761719 238.046875 104.894531 L 238.070312 105.289062 L 235.09375 103.128906 C 234.75 102.890625 234.589844 102.46875 234.617188 102.074219 C 234.800781 100.382812 235.304688 95.953125 235.382812 94.898438 C 235.488281 93.609375 233.90625 91.789062 233.90625 91.789062 C 233.90625 91.789062 232.007812 93.238281 231.847656 94.558594 C 231.714844 95.613281 231.347656 100.042969 231.1875 101.730469 C 231.164062 102.152344 230.898438 102.496094 230.53125 102.679688 L 227.207031 104.207031 L 227.285156 103.839844 C 227.3125 103.707031 227.234375 103.574219 227.074219 103.550781 L 225.492188 103.445312 C 225.363281 103.445312 225.257812 103.523438 225.257812 103.65625 L 225.175781 105.132812 L 222.882812 106.1875 L 223.015625 105.683594 C 223.039062 105.554688 222.960938 105.421875 222.828125 105.394531 L 221.40625 105.261719 C 221.273438 105.261719 221.167969 105.34375 221.167969 105.472656 L 221.089844 107.003906 L 216.394531 109.191406 C 216.183594 109.296875 216.027344 109.480469 215.972656 109.691406 L 215.683594 110.933594 L 229.632812 109.429688 C 229.949219 109.402344 230.214844 109.667969 230.1875 109.984375 C 229.949219 112.4375 229.976562 115.285156 230.027344 116.601562 C 230.027344 117.050781 229.792969 117.472656 229.371094 117.65625 L 224.175781 120.003906 L 223.78125 121.640625 L 229.871094 120.875 C 229.949219 121.71875 230.847656 122.667969 230.847656 122.667969 C 230.847656 122.667969 231.902344 121.902344 232.136719 121.085938 L 237.964844 123.035156 L 237.914062 121.347656 L 233.273438 118.027344 C 232.902344 117.789062 232.746094 117.339844 232.851562 116.890625 Z M 232.851562 116.890625 " fill-opacity="1" fill-rule="nonzero"/></g><path fill="#f68712" d="M 174.441406 191.125 C 163.8125 185.242188 156.746094 173.71875 157.328125 160.613281 C 158.066406 143.710938 171.644531 129.945312 188.550781 128.996094 C 201.417969 128.285156 212.808594 134.957031 218.902344 145.132812 C 222.011719 139.042969 224.042969 133.664062 225.335938 129.761719 C 225.996094 127.703125 225.257812 125.460938 223.515625 124.195312 C 221.457031 122.695312 219.296875 121.402344 216.976562 120.269531 C 209.25 116.46875 200.152344 114.703125 190.449219 114.96875 C 180.71875 114.703125 171.644531 116.496094 163.917969 120.269531 C 157.300781 123.511719 151.683594 128.230469 147.492188 134.453125 C 136.074219 151.359375 138.023438 175.089844 150.417969 196.871094 C 151.605469 198.957031 154.109375 199.878906 156.351562 199.085938 C 162.734375 196.871094 168.773438 194.234375 174.441406 191.125 Z M 174.441406 191.125 " fill-opacity="1" fill-rule="nonzero"/><g clip-path="url(#f00151b40e)"><path fill="#2482c2" d="M 233.167969 134.058594 C 233.140625 134.058594 233.140625 134.058594 233.167969 134.058594 C 231.609375 144.921875 228.683594 154.785156 224.386719 163.566406 C 223.804688 164.753906 223.382812 166.019531 223.171875 167.3125 C 221.140625 180.046875 211.832031 190.410156 199.625 193.917969 C 198.332031 194.289062 197.09375 194.867188 195.960938 195.632812 C 193.796875 197.058594 191.554688 198.402344 189.207031 199.640625 C 179.214844 204.992188 168.902344 208.238281 159.488281 210.1875 C 165.078125 217.097656 171.75 223.585938 179.453125 229.28125 C 181.007812 230.414062 182.5625 231.523438 184.117188 232.578125 C 187.917969 235.109375 192.898438 235.109375 196.699219 232.578125 C 198.28125 231.523438 199.835938 230.441406 201.363281 229.28125 C 236.910156 202.910156 251.203125 160.164062 233.167969 134.058594 Z M 233.167969 134.058594 " fill-opacity="1" fill-rule="nonzero"/></g><path fill="#f68712" d="M 215.761719 177.464844 C 213.601562 180.257812 211.253906 182.894531 208.722656 185.375 C 211.515625 183.1875 213.917969 180.496094 215.761719 177.464844 Z M 215.761719 177.464844 " fill-opacity="1" fill-rule="nonzero"/><g clip-path="url(#f31982c3ba)"><path fill="#f68712" d="M 126.976562 209.238281 C 126.976562 209.238281 224.859375 217.152344 230.636719 123.800781 C 230.636719 123.828125 216.34375 198.613281 126.976562 209.238281 Z M 126.976562 209.238281 " fill-opacity="1" fill-rule="nonzero"/></g><path fill="#2482c2" d="M 182.0625 158.609375 L 191.1875 166.574219 C 191.738281 167.046875 192.609375 166.757812 192.769531 166.046875 L 194.402344 157.898438 C 194.480469 157.554688 194.878906 157.394531 195.167969 157.605469 L 199.914062 161.089844 C 200.496094 161.511719 201.3125 161.167969 201.417969 160.457031 L 204.421875 142.101562 C 204.476562 141.734375 204.953125 141.546875 205.242188 141.8125 L 214.601562 150.066406 C 215.15625 150.566406 216.027344 150.410156 216.394531 149.777344 C 216.582031 149.460938 216.738281 149.167969 216.921875 148.851562 C 209.933594 134.875 192.1875 127.203125 174.519531 136.667969 C 170.511719 138.804688 167.191406 142.101562 165.027344 146.109375 C 156.0625 162.75 162.3125 179.414062 174.703125 187.195312 C 175.285156 187.5625 176.023438 187.222656 176.15625 186.5625 L 181.246094 158.898438 C 181.324219 158.53125 181.773438 158.371094 182.0625 158.609375 Z M 182.0625 158.609375 " fill-opacity="1" fill-rule="nonzero"/><g fill="#0075c3" fill-opacity="1"><g transform="translate(114.581386, 266.543025)"><g><path d="M 18.171875 -11.921875 C 18.171875 -10.867188 17.882812 -9.914062 17.3125 -9.0625 C 16.75 -8.21875 15.925781 -7.597656 14.84375 -7.203125 L 18.671875 0 L 12.46875 0 L 9.421875 -6.28125 L 7.375 -6.28125 L 7.375 0 L 1.84375 0 L 1.84375 -17.203125 L 12.375 -17.203125 C 13.601562 -17.203125 14.65625 -16.960938 15.53125 -16.484375 C 16.40625 -16.015625 17.0625 -15.375 17.5 -14.5625 C 17.945312 -13.75 18.171875 -12.867188 18.171875 -11.921875 Z M 12.546875 -11.703125 C 12.546875 -12.148438 12.394531 -12.523438 12.09375 -12.828125 C 11.800781 -13.128906 11.4375 -13.28125 11 -13.28125 L 7.375 -13.28125 L 7.375 -10.09375 L 11 -10.09375 C 11.4375 -10.09375 11.800781 -10.25 12.09375 -10.5625 C 12.394531 -10.875 12.546875 -11.253906 12.546875 -11.703125 Z M 12.546875 -11.703125 "/></g></g></g><g fill="#0075c3" fill-opacity="1"><g transform="translate(134.028307, 266.543025)"><g><path d="M 18.96875 -6.921875 C 18.96875 -4.578125 18.226562 -2.785156 16.75 -1.546875 C 15.269531 -0.316406 13.160156 0.296875 10.421875 0.296875 C 7.691406 0.296875 5.578125 -0.316406 4.078125 -1.546875 C 2.585938 -2.785156 1.84375 -4.578125 1.84375 -6.921875 L 1.84375 -17.203125 L 7.375 -17.203125 L 7.375 -7 C 7.375 -6.03125 7.628906 -5.257812 8.140625 -4.6875 C 8.660156 -4.113281 9.414062 -3.828125 10.40625 -3.828125 C 11.382812 -3.828125 12.132812 -4.117188 12.65625 -4.703125 C 13.1875 -5.285156 13.453125 -6.050781 13.453125 -7 L 13.453125 -17.203125 L 18.96875 -17.203125 Z M 18.96875 -6.921875 "/></g></g></g><g fill="#0075c3" fill-opacity="1"><g transform="translate(154.850007, 266.543025)"><g><path d="M 11.75 -12.796875 L 11.75 0 L 6.21875 0 L 6.21875 -12.796875 L 0.578125 -12.796875 L 0.578125 -17.203125 L 17.375 -17.203125 L 17.375 -12.796875 Z M 11.75 -12.796875 "/></g></g></g><g fill="#0075c3" fill-opacity="1"><g transform="translate(172.897144, 266.543025)"><g><path d="M 13.375 0 L 12.65625 -2.421875 L 6.625 -2.421875 L 5.90625 0 L 0.25 0 L 6.53125 -17.203125 L 12.953125 -17.203125 L 19.21875 0 Z M 7.78125 -6.28125 L 11.5 -6.28125 L 9.703125 -12.40625 L 9.59375 -12.40625 Z M 7.78125 -6.28125 "/></g></g></g><g fill="#0075c3" fill-opacity="1"><g transform="translate(192.344065, 266.543025)"><g><path d="M 6.53125 0 L 0.421875 -17.203125 L 6.328125 -17.203125 L 9.78125 -5.703125 L 9.875 -5.703125 L 13.34375 -17.203125 L 19 -17.203125 L 12.921875 0 Z M 6.53125 0 "/></g></g></g><g fill="#0075c3" fill-opacity="1"><g transform="translate(211.790986, 266.543025)"><g><path d="M 2.09375 0 L 2.09375 -17.203125 L 7.625 -17.203125 L 7.625 0 Z M 2.09375 0 "/></g></g></g><g fill="#0075c3" fill-opacity="1"><g transform="translate(221.514447, 266.543025)"><g><path d="M 6.53125 0 L 0.421875 -17.203125 L 6.328125 -17.203125 L 9.78125 -5.703125 L 9.875 -5.703125 L 13.34375 -17.203125 L 19 -17.203125 L 12.921875 0 Z M 6.53125 0 "/></g></g></g><g fill="#0075c3" fill-opacity="1"><g transform="translate(240.961368, 266.543025)"><g><path d="M 13.375 0 L 12.65625 -2.421875 L 6.625 -2.421875 L 5.90625 0 L 0.25 0 L 6.53125 -17.203125 L 12.953125 -17.203125 L 19.21875 0 Z M 7.78125 -6.28125 L 11.5 -6.28125 L 9.703125 -12.40625 L 9.59375 -12.40625 Z M 7.78125 -6.28125 "/></g></g></g><g transform="matrix(1, 0, 0, 1, 118, 271)"><g clip-path="url(#349eddb430)"><g clip-path="url(#525fc5c3b9)"><g fill="#f68712" fill-opacity="1"><g transform="translate(0.619118, 10.118248)"><g><path d="M 4.171875 -1.75 L 2.15625 -1.75 L 1.59375 0 L 0.09375 0 L 2.328125 -6.1875 L 4.0625 -6.1875 L 6.265625 0 L 4.75 0 Z M 3.171875 -4.96875 L 2.515625 -2.859375 L 3.828125 -2.859375 Z M 3.171875 -4.96875 "/></g></g></g></g><g fill="#f68712" fill-opacity="1"><g transform="translate(9.160957, 10.118248)"><g><path d="M 3.65625 -3.21875 L 6.25 -3.21875 L 6.25 0 L 5.125 0 L 5.015625 -0.984375 L 4.75 -0.328125 C 4.570312 -0.171875 4.363281 -0.0546875 4.125 0.015625 C 3.894531 0.0859375 3.613281 0.125 3.28125 0.125 C 2.71875 0.125 2.222656 0 1.796875 -0.25 C 1.378906 -0.5 1.050781 -0.859375 0.8125 -1.328125 C 0.582031 -1.804688 0.46875 -2.382812 0.46875 -3.0625 C 0.46875 -3.75 0.601562 -4.332031 0.875 -4.8125 C 1.15625 -5.300781 1.53125 -5.671875 2 -5.921875 C 2.46875 -6.179688 2.988281 -6.3125 3.5625 -6.3125 C 4.132812 -6.3125 4.613281 -6.21875 5 -6.03125 C 5.394531 -5.84375 5.695312 -5.585938 5.90625 -5.265625 C 6.113281 -4.941406 6.238281 -4.578125 6.28125 -4.171875 L 6.296875 -4.078125 L 4.890625 -4.078125 L 4.875 -4.171875 C 4.726562 -4.910156 4.285156 -5.28125 3.546875 -5.28125 C 3.242188 -5.28125 2.972656 -5.195312 2.734375 -5.03125 C 2.492188 -4.863281 2.300781 -4.617188 2.15625 -4.296875 C 2.019531 -3.984375 1.953125 -3.597656 1.953125 -3.140625 C 1.953125 -2.628906 2.019531 -2.207031 2.15625 -1.875 C 2.300781 -1.539062 2.488281 -1.296875 2.71875 -1.140625 C 2.957031 -0.992188 3.226562 -0.921875 3.53125 -0.921875 C 3.882812 -0.921875 4.179688 -1.019531 4.421875 -1.21875 C 4.671875 -1.425781 4.832031 -1.726562 4.90625 -2.125 L 3.65625 -2.125 Z M 3.65625 -3.21875 "/></g></g></g><g fill="#f68712" fill-opacity="1"><g transform="translate(18.214231, 10.118248)"><g><path d="M 5.359375 -1.109375 L 5.359375 0 L 0.765625 0 L 0.765625 -6.1875 L 5.265625 -6.1875 L 5.265625 -5.09375 L 2.171875 -5.09375 L 2.171875 -3.65625 L 5.0625 -3.65625 L 5.0625 -2.5625 L 2.171875 -2.5625 L 2.171875 -1.109375 Z M 5.359375 -1.109375 "/></g></g></g><g fill="#f68712" fill-opacity="1"><g transform="translate(26.181827, 10.118248)"><g><path d="M 6.40625 0 L 4.53125 0 L 2.109375 -4.4375 C 2.140625 -4.101562 2.15625 -3.785156 2.15625 -3.484375 C 2.164062 -3.179688 2.171875 -2.914062 2.171875 -2.6875 L 2.171875 0 L 0.765625 0 L 0.765625 -6.1875 L 2.5625 -6.1875 L 5.0625 -1.625 C 5.039062 -1.945312 5.023438 -2.269531 5.015625 -2.59375 C 5.015625 -2.925781 5.015625 -3.207031 5.015625 -3.4375 L 5.015625 -6.1875 L 6.40625 -6.1875 Z M 6.40625 0 "/></g></g></g><g fill="#f68712" fill-opacity="1"><g transform="translate(35.486329, 10.118248)"><g><path d="M 3.5 -6.3125 C 4.070312 -6.3125 4.550781 -6.21875 4.9375 -6.03125 C 5.332031 -5.84375 5.632812 -5.585938 5.84375 -5.265625 C 6.050781 -4.941406 6.175781 -4.578125 6.21875 -4.171875 L 6.234375 -4.078125 L 4.828125 -4.078125 L 4.8125 -4.171875 C 4.65625 -4.910156 4.210938 -5.28125 3.484375 -5.28125 C 3.035156 -5.28125 2.664062 -5.09375 2.375 -4.71875 C 2.09375 -4.351562 1.953125 -3.828125 1.953125 -3.140625 C 1.953125 -2.628906 2.019531 -2.207031 2.15625 -1.875 C 2.289062 -1.539062 2.472656 -1.296875 2.703125 -1.140625 C 2.929688 -0.992188 3.1875 -0.921875 3.46875 -0.921875 C 3.832031 -0.921875 4.125 -1.023438 4.34375 -1.234375 C 4.5625 -1.441406 4.707031 -1.726562 4.78125 -2.09375 L 4.796875 -2.171875 L 6.203125 -2.171875 L 6.203125 -2.09375 C 6.128906 -1.394531 5.84375 -0.847656 5.34375 -0.453125 C 4.84375 -0.0664062 4.203125 0.125 3.421875 0.125 C 2.859375 0.125 2.351562 0 1.90625 -0.25 C 1.457031 -0.5 1.101562 -0.859375 0.84375 -1.328125 C 0.59375 -1.804688 0.46875 -2.382812 0.46875 -3.0625 C 0.46875 -3.75 0.601562 -4.332031 0.875 -4.8125 C 1.144531 -5.300781 1.503906 -5.671875 1.953125 -5.921875 C 2.410156 -6.179688 2.925781 -6.3125 3.5 -6.3125 Z M 3.5 -6.3125 "/></g></g></g><g fill="#f68712" fill-opacity="1"><g transform="translate(44.342203, 10.118248)"><g><path d="M 2.171875 0 L 0.765625 0 L 0.765625 -6.1875 L 2.171875 -6.1875 Z M 2.171875 0 "/></g></g></g><g fill="#f68712" fill-opacity="1"><g transform="translate(49.402694, 10.118248)"><g><path d="M 4.171875 -1.75 L 2.15625 -1.75 L 1.59375 0 L 0.09375 0 L 2.328125 -6.1875 L 4.0625 -6.1875 L 6.265625 0 L 4.75 0 Z M 3.171875 -4.96875 L 2.515625 -2.859375 L 3.828125 -2.859375 Z M 3.171875 -4.96875 "/></g></g></g><g fill="#f68712" fill-opacity="1"><g transform="translate(57.944532, 10.118248)"><g/></g></g><g fill="#f68712" fill-opacity="1"><g transform="translate(61.964206, 10.118248)"><g><path d="M 3.78125 -6.15625 C 4.257812 -6.101562 4.691406 -5.960938 5.078125 -5.734375 C 5.472656 -5.503906 5.785156 -5.179688 6.015625 -4.765625 C 6.242188 -4.347656 6.359375 -3.816406 6.359375 -3.171875 C 6.359375 -2.535156 6.238281 -1.992188 6 -1.546875 C 5.769531 -1.097656 5.457031 -0.75 5.0625 -0.5 C 4.675781 -0.25 4.242188 -0.09375 3.765625 -0.03125 C 3.609375 -0.0195312 3.476562 -0.0078125 3.375 0 C 3.28125 0 3.148438 0 2.984375 0 L 0.765625 0 L 0.765625 -6.1875 L 2.984375 -6.1875 C 3.148438 -6.1875 3.285156 -6.179688 3.390625 -6.171875 C 3.492188 -6.171875 3.625 -6.164062 3.78125 -6.15625 Z M 3.421875 -1.125 C 3.859375 -1.164062 4.207031 -1.363281 4.46875 -1.71875 C 4.738281 -2.082031 4.875 -2.5625 4.875 -3.15625 C 4.875 -3.738281 4.742188 -4.191406 4.484375 -4.515625 C 4.222656 -4.835938 3.875 -5.019531 3.4375 -5.0625 C 3.332031 -5.070312 3.234375 -5.078125 3.140625 -5.078125 C 3.046875 -5.085938 2.9375 -5.09375 2.8125 -5.09375 L 2.171875 -5.09375 L 2.171875 -1.109375 L 2.796875 -1.109375 C 2.929688 -1.109375 3.046875 -1.109375 3.140625 -1.109375 C 3.234375 -1.109375 3.328125 -1.113281 3.421875 -1.125 Z M 3.421875 -1.125 "/></g></g></g><g fill="#f68712" fill-opacity="1"><g transform="translate(70.945694, 10.118248)"><g><path d="M 5.359375 -1.109375 L 5.359375 0 L 0.765625 0 L 0.765625 -6.1875 L 5.265625 -6.1875 L 5.265625 -5.09375 L 2.171875 -5.09375 L 2.171875 -3.65625 L 5.0625 -3.65625 L 5.0625 -2.5625 L 2.171875 -2.5625 L 2.171875 -1.109375 Z M 5.359375 -1.109375 "/></g></g></g><g fill="#f68712" fill-opacity="1"><g transform="translate(78.91329, 10.118248)"><g/></g></g><g fill="#f68712" fill-opacity="1"><g transform="translate(82.932964, 10.118248)"><g><path d="M 5.6875 -5.09375 L 3.625 -5.09375 L 3.625 0 L 2.234375 0 L 2.234375 -5.09375 L 0.171875 -5.09375 L 0.171875 -6.1875 L 5.6875 -6.1875 Z M 5.6875 -5.09375 "/></g></g></g><g fill="#f68712" fill-opacity="1"><g transform="translate(90.909528, 10.118248)"><g><path d="M 5.953125 -6.1875 L 5.953125 -2.609375 C 5.953125 -2.460938 5.945312 -2.332031 5.9375 -2.21875 C 5.9375 -2.113281 5.929688 -1.984375 5.921875 -1.828125 C 5.898438 -1.472656 5.796875 -1.144531 5.609375 -0.84375 C 5.429688 -0.550781 5.15625 -0.316406 4.78125 -0.140625 C 4.40625 0.0351562 3.914062 0.125 3.3125 0.125 C 2.707031 0.125 2.21875 0.0351562 1.84375 -0.140625 C 1.46875 -0.316406 1.1875 -0.550781 1 -0.84375 C 0.820312 -1.144531 0.71875 -1.472656 0.6875 -1.828125 C 0.6875 -1.984375 0.679688 -2.113281 0.671875 -2.21875 C 0.671875 -2.332031 0.671875 -2.460938 0.671875 -2.609375 L 0.671875 -6.1875 L 2.078125 -6.1875 L 2.078125 -2.40625 C 2.078125 -2.320312 2.078125 -2.25 2.078125 -2.1875 C 2.078125 -2.125 2.078125 -2.054688 2.078125 -1.984375 C 2.109375 -1.648438 2.222656 -1.390625 2.421875 -1.203125 C 2.628906 -1.015625 2.925781 -0.921875 3.3125 -0.921875 C 3.695312 -0.921875 3.988281 -1.015625 4.1875 -1.203125 C 4.394531 -1.390625 4.507812 -1.648438 4.53125 -1.984375 C 4.539062 -2.054688 4.546875 -2.125 4.546875 -2.1875 C 4.546875 -2.25 4.546875 -2.320312 4.546875 -2.40625 L 4.546875 -6.1875 Z M 5.953125 -6.1875 "/></g></g></g><g fill="#f68712" fill-opacity="1"><g transform="translate(99.621841, 10.118248)"><g><path d="M 5.40625 -1.53125 C 5.445312 -1.164062 5.5 -0.863281 5.5625 -0.625 C 5.632812 -0.382812 5.734375 -0.175781 5.859375 0 L 4.328125 0 C 4.242188 -0.21875 4.179688 -0.425781 4.140625 -0.625 C 4.097656 -0.832031 4.0625 -1.0625 4.03125 -1.3125 C 3.988281 -1.65625 3.898438 -1.921875 3.765625 -2.109375 C 3.628906 -2.296875 3.445312 -2.398438 3.21875 -2.421875 C 3.132812 -2.429688 3.050781 -2.4375 2.96875 -2.4375 C 2.894531 -2.4375 2.8125 -2.4375 2.71875 -2.4375 L 2.171875 -2.4375 L 2.171875 0 L 0.765625 0 L 0.765625 -6.1875 L 3.109375 -6.1875 C 3.296875 -6.1875 3.457031 -6.179688 3.59375 -6.171875 C 3.726562 -6.171875 3.878906 -6.160156 4.046875 -6.140625 C 4.347656 -6.109375 4.617188 -6.03125 4.859375 -5.90625 C 5.109375 -5.789062 5.304688 -5.617188 5.453125 -5.390625 C 5.609375 -5.160156 5.6875 -4.863281 5.6875 -4.5 C 5.6875 -4.101562 5.578125 -3.773438 5.359375 -3.515625 C 5.148438 -3.265625 4.847656 -3.085938 4.453125 -2.984375 C 4.773438 -2.867188 5.003906 -2.6875 5.140625 -2.4375 C 5.273438 -2.195312 5.363281 -1.894531 5.40625 -1.53125 Z M 2.171875 -3.46875 L 2.890625 -3.46875 C 2.992188 -3.46875 3.082031 -3.46875 3.15625 -3.46875 C 3.238281 -3.46875 3.3125 -3.46875 3.375 -3.46875 C 3.601562 -3.488281 3.800781 -3.554688 3.96875 -3.671875 C 4.132812 -3.796875 4.21875 -4 4.21875 -4.28125 C 4.21875 -4.5625 4.140625 -4.757812 3.984375 -4.875 C 3.835938 -4.988281 3.648438 -5.054688 3.421875 -5.078125 C 3.367188 -5.078125 3.300781 -5.078125 3.21875 -5.078125 C 3.144531 -5.085938 3.054688 -5.09375 2.953125 -5.09375 L 2.171875 -5.09375 Z M 2.171875 -3.46875 "/></g></g></g><g fill="#f68712" fill-opacity="1"><g transform="translate(107.948333, 10.118248)"><g><path d="M 2.171875 0 L 0.765625 0 L 0.765625 -6.1875 L 2.171875 -6.1875 Z M 2.171875 0 "/></g></g></g><g fill="#f68712" fill-opacity="1"><g transform="translate(113.008824, 10.118248)"><g><path d="M 2.875 -6.3125 C 3.382812 -6.3125 3.804688 -6.222656 4.140625 -6.046875 C 4.472656 -5.878906 4.726562 -5.644531 4.90625 -5.34375 C 5.082031 -5.039062 5.191406 -4.703125 5.234375 -4.328125 L 3.8125 -4.328125 C 3.78125 -4.617188 3.679688 -4.847656 3.515625 -5.015625 C 3.359375 -5.191406 3.128906 -5.28125 2.828125 -5.28125 C 2.609375 -5.28125 2.425781 -5.222656 2.28125 -5.109375 C 2.144531 -5.003906 2.078125 -4.84375 2.078125 -4.625 C 2.078125 -4.382812 2.171875 -4.191406 2.359375 -4.046875 C 2.546875 -3.910156 2.882812 -3.785156 3.375 -3.671875 C 4.0625 -3.503906 4.5625 -3.257812 4.875 -2.9375 C 5.1875 -2.613281 5.34375 -2.207031 5.34375 -1.71875 C 5.34375 -1.320312 5.226562 -0.984375 5 -0.703125 C 4.78125 -0.429688 4.488281 -0.222656 4.125 -0.078125 C 3.769531 0.0546875 3.390625 0.125 2.984375 0.125 C 2.222656 0.125 1.609375 -0.0351562 1.140625 -0.359375 C 0.671875 -0.691406 0.40625 -1.191406 0.34375 -1.859375 L 1.765625 -1.859375 C 1.828125 -1.535156 1.96875 -1.296875 2.1875 -1.140625 C 2.414062 -0.992188 2.671875 -0.921875 2.953125 -0.921875 C 3.210938 -0.921875 3.425781 -0.984375 3.59375 -1.109375 C 3.769531 -1.234375 3.859375 -1.398438 3.859375 -1.609375 C 3.859375 -1.816406 3.773438 -2 3.609375 -2.15625 C 3.453125 -2.3125 3.160156 -2.4375 2.734375 -2.53125 C 2.296875 -2.644531 1.914062 -2.773438 1.59375 -2.921875 C 1.269531 -3.066406 1.019531 -3.265625 0.84375 -3.515625 C 0.675781 -3.765625 0.59375 -4.085938 0.59375 -4.484375 C 0.59375 -4.867188 0.695312 -5.195312 0.90625 -5.46875 C 1.125 -5.75 1.40625 -5.957031 1.75 -6.09375 C 2.09375 -6.238281 2.46875 -6.3125 2.875 -6.3125 Z M 2.875 -6.3125 "/></g></g></g><g fill="#f68712" fill-opacity="1"><g transform="translate(120.886699, 10.118248)"><g><path d="M 7.609375 -6.1875 L 7.609375 0 L 6.203125 0 L 6.203125 -2.75 C 6.203125 -3.039062 6.203125 -3.375 6.203125 -3.75 C 6.210938 -4.132812 6.21875 -4.484375 6.21875 -4.796875 C 6.164062 -4.484375 6.085938 -4.140625 5.984375 -3.765625 C 5.890625 -3.390625 5.800781 -3.050781 5.71875 -2.75 L 4.9375 0 L 3.4375 0 L 2.640625 -2.75 C 2.554688 -3.050781 2.46875 -3.382812 2.375 -3.75 C 2.289062 -4.125 2.21875 -4.472656 2.15625 -4.796875 C 2.164062 -4.472656 2.171875 -4.125 2.171875 -3.75 C 2.171875 -3.375 2.171875 -3.039062 2.171875 -2.75 L 2.171875 0 L 0.765625 0 L 0.765625 -6.1875 L 2.96875 -6.1875 L 4.21875 -1.34375 L 5.46875 -6.1875 Z M 7.609375 -6.1875 "/></g></g></g><g fill="#f68712" fill-opacity="1"><g transform="translate(131.393525, 10.118248)"><g><path d="M 3.578125 -6.3125 C 4.210938 -6.3125 4.757812 -6.179688 5.21875 -5.921875 C 5.6875 -5.660156 6.046875 -5.285156 6.296875 -4.796875 C 6.554688 -4.316406 6.6875 -3.75 6.6875 -3.09375 C 6.6875 -2.4375 6.554688 -1.867188 6.296875 -1.390625 C 6.046875 -0.910156 5.6875 -0.535156 5.21875 -0.265625 C 4.757812 -0.00390625 4.210938 0.125 3.578125 0.125 C 2.941406 0.125 2.390625 -0.00390625 1.921875 -0.265625 C 1.453125 -0.535156 1.09375 -0.910156 0.84375 -1.390625 C 0.59375 -1.867188 0.46875 -2.4375 0.46875 -3.09375 C 0.46875 -3.75 0.59375 -4.316406 0.84375 -4.796875 C 1.09375 -5.285156 1.453125 -5.660156 1.921875 -5.921875 C 2.390625 -6.179688 2.941406 -6.3125 3.578125 -6.3125 Z M 3.578125 -0.921875 C 4.085938 -0.921875 4.488281 -1.109375 4.78125 -1.484375 C 5.082031 -1.867188 5.234375 -2.40625 5.234375 -3.09375 C 5.234375 -3.789062 5.082031 -4.328125 4.78125 -4.703125 C 4.488281 -5.085938 4.085938 -5.28125 3.578125 -5.28125 C 3.066406 -5.28125 2.660156 -5.085938 2.359375 -4.703125 C 2.066406 -4.328125 1.921875 -3.789062 1.921875 -3.09375 C 1.921875 -2.40625 2.066406 -1.867188 2.359375 -1.484375 C 2.660156 -1.109375 3.066406 -0.921875 3.578125 -0.921875 Z M 3.578125 -0.921875 "/></g></g></g></g></g></svg>